<?xml version="1.0" standalone="no"?>
<!DOCTYPE svg PUBLIC "-//W3C//DTD SVG 20010904//EN"
 "http://www.w3.org/TR/2001/REC-SVG-20010904/DTD/svg10.dtd">
<svg version="1.0" xmlns="http://www.w3.org/2000/svg"
 width="500.000000pt" height="500.000000pt" viewBox="0 0 500.000000 500.000000"
 preserveAspectRatio="xMidYMid meet">

 <style>
  /* Color por defecto (modo claro) */
  g {
    fill: black;
  }
  
  /* Modo nocturno */
  @media (prefers-color-scheme: dark) {
    g {
      fill: white;
    }
  }
</style>

<g transform="translate(0.000000,500.000000) scale(0.100000,-0.100000)"
fill="#000000" stroke="none">
<path d="M2350 3886 c-497 -78 -908 -404 -1090 -866 l-20 -50 29 0 c15 0 48
-3 73 -6 l44 -6 14 43 c8 23 38 82 66 130 139 235 317 401 547 509 184 87 332
120 532 120 153 0 279 -21 421 -72 116 -41 269 -122 259 -138 -3 -5 0 -12 6
-16 8 -5 9 -3 4 6 -5 8 -3 11 6 8 8 -3 14 -10 14 -16 0 -5 4 -14 9 -19 5 -5 6
-3 2 5 -14 23 7 12 71 -40 71 -58 218 -224 265 -299 l29 -47 59 26 c33 15 60
30 60 35 0 28 -131 198 -230 298 -199 200 -418 320 -694 380 -119 26 -359 33
-476 15z"/>
<path d="M2395 3725 c-326 -49 -618 -220 -813 -477 -74 -98 -177 -282 -166
-299 3 -5 21 23 41 63 267 559 907 835 1503 649 35 -11 66 -18 68 -16 2 2 -36
16 -84 30 -49 14 -96 29 -104 31 -37 12 -222 34 -285 33 -38 -1 -110 -7 -160
-14z"/>
<path d="M3080 3615 c25 -13 50 -24 55 -24 6 0 -10 11 -35 24 -25 13 -49 24
-55 24 -5 0 10 -11 35 -24z"/>
<path d="M3150 3586 c0 -3 9 -10 20 -16 11 -6 20 -8 20 -6 0 3 -9 10 -20 16
-11 6 -20 8 -20 6z"/>
<path d="M2434 3525 c-9 -14 -13 -32 -9 -45 15 -47 86 -50 107 -5 27 59 -62
105 -98 50z m74 3 c16 -16 15 -53 -3 -68 -19 -16 -45 -10 -61 15 -26 39 31 86
64 53z"/>
<path d="M2571 3493 c1 -32 4 -48 6 -35 2 12 11 22 20 22 8 0 24 -10 34 -22
20 -23 20 -23 10 -1 -7 14 -8 24 -1 28 16 10 12 52 -6 59 -9 3 -27 6 -40 6
-23 0 -24 -3 -23 -57z m64 22 c0 -14 -8 -21 -27 -23 -24 -3 -28 0 -28 23 0 23
4 26 28 23 19 -2 27 -9 27 -23z"/>
<path d="M2336 3531 c-19 -7 -19 -8 2 -13 14 -4 22 -14 23 -30 0 -12 5 -32 10
-43 6 -14 7 -4 3 32 -5 44 -3 52 13 56 13 3 11 5 -7 5 -14 0 -34 -3 -44 -7z"/>
<path d="M2686 3495 c-4 -25 -5 -49 -2 -54 8 -12 66 -20 66 -9 0 4 -13 8 -30
8 -23 0 -30 4 -30 20 0 16 7 20 33 21 30 2 30 2 5 6 -20 3 -28 10 -28 25 0 18
4 20 38 14 26 -4 31 -3 17 4 -47 21 -62 13 -69 -35z"/>
<path d="M2245 3506 c-26 -19 -12 -44 27 -48 42 -4 44 -30 3 -39 -27 -6 -27
-7 -5 -8 59 -2 70 50 12 59 -39 6 -43 20 -11 37 15 8 18 13 8 13 -8 0 -24 -6
-34 -14z"/>
<path d="M2832 3488 c-18 -18 -15 -69 6 -84 9 -7 26 -13 37 -13 14 0 11 4 -12
14 -61 26 -34 101 29 77 25 -9 28 -9 18 4 -15 17 -61 19 -78 2z"/>
<path d="M2134 3473 c-6 -5 -16 -18 -23 -31 -10 -19 -10 -28 4 -48 22 -34 69
-33 92 2 15 24 15 29 2 53 -15 26 -53 38 -75 24z m62 -24 c20 -22 13 -43 -19
-63 -39 -25 -78 44 -41 71 25 18 38 16 60 -8z"/>
<path d="M2937 3442 c-34 -38 -8 -92 44 -92 32 0 49 17 49 50 0 52 -60 78 -93
42z m64 -2 c23 -13 25 -52 4 -70 -8 -7 -25 -10 -39 -6 -33 8 -43 42 -20 67 20
22 28 23 55 9z"/>
<path d="M2003 3408 c-13 -6 -23 -15 -23 -20 0 -11 39 -88 45 -88 29 0 74 44
60 58 -3 3 -5 1 -5 -5 0 -6 -11 -18 -25 -27 -24 -16 -25 -16 -45 24 -20 39
-20 39 -1 50 30 16 48 12 65 -12 13 -18 16 -19 16 -6 0 18 -29 39 -52 37 -7 0
-23 -5 -35 -11z"/>
<path d="M3057 3368 l-26 -43 27 -22 c14 -12 28 -20 31 -18 2 3 -6 13 -19 23
l-22 18 22 37 c13 21 20 40 17 43 -2 3 -16 -14 -30 -38z"/>
<path d="M1920 3343 c30 -6 60 -31 60 -50 0 -21 -16 -15 -34 12 -16 24 -18 24
-41 9 -27 -18 -32 -43 -13 -62 17 -17 47 -15 54 3 4 8 13 15 20 15 8 0 17 7
21 16 8 22 -35 64 -66 63 l-26 -2 25 -4z m19 -47 c17 -20 2 -48 -23 -44 -24 3
-34 37 -14 49 18 12 24 11 37 -5z"/>
<path d="M1866 3324 c-9 -8 -16 -20 -16 -26 0 -6 1 -9 3 -7 1 2 11 14 21 27
22 25 16 30 -8 6z"/>
<path d="M2390 3276 c-161 -36 -289 -105 -400 -216 -108 -108 -184 -243 -214
-381 -5 -23 -10 -26 -45 -25 -43 1 -71 -17 -71 -45 0 -13 7 -19 24 -19 13 0
29 -6 35 -14 35 -41 19 -158 -30 -225 -61 -85 -106 -73 -93 24 8 64 19 91 50
128 30 36 18 60 -30 55 -25 -2 -34 -12 -55 -52 -21 -40 -25 -64 -26 -129 0
-75 2 -81 27 -100 15 -11 43 -20 67 -21 36 -1 46 5 91 49 37 37 50 45 50 31 0
-10 -20 -38 -44 -62 -36 -36 -50 -44 -80 -44 -21 0 -47 5 -59 11 -21 10 -21
10 -3 -5 44 -35 133 -8 172 51 l17 28 18 -50 c10 -28 18 -55 18 -61 1 -6 -49
-21 -116 -34 -228 -43 -458 -120 -682 -228 l-104 -50 144 -6 c79 -3 158 -6
174 -7 17 -1 104 22 195 50 177 56 444 124 467 119 29 -6 11 -23 -35 -34 -26
-7 -38 -12 -27 -13 11 0 37 3 57 8 36 8 38 7 77 -39 82 -97 240 -195 381 -236
51 -15 96 -19 210 -18 127 0 155 3 227 26 171 53 331 174 427 321 l50 76 55 6
c79 9 88 16 14 11 -35 -2 -63 0 -63 4 0 15 13 18 106 30 122 16 394 74 479
103 168 58 264 140 253 219 -4 32 -44 35 -113 9 l-55 -21 -1 28 -1 27 -8 -30
c-7 -28 -8 -28 -9 12 -1 50 20 155 55 275 14 48 23 92 20 97 -7 10 -75 35 -80
29 -7 -8 -65 -259 -76 -326 -15 -89 -8 -117 30 -137 37 -19 66 -19 120 0 24 8
45 13 48 10 9 -9 -31 -34 -73 -47 -22 -7 -42 -15 -45 -18 -10 -11 -184 -61
-284 -81 -110 -21 -304 -48 -310 -42 -2 2 1 22 6 43 8 32 15 40 33 40 41 0
118 29 144 54 27 26 28 26 68 10 23 -9 52 -14 65 -11 42 11 97 67 128 130 66
135 42 267 -49 269 -32 1 -71 -25 -71 -48 0 -7 12 -14 27 -16 17 -2 33 -13 41
-28 19 -37 8 -132 -24 -189 -25 -47 -75 -88 -94 -76 -14 8 -13 104 1 146 7 19
23 46 37 61 21 23 23 30 12 43 -39 47 -102 -12 -124 -117 -8 -36 -21 -77 -31
-91 -19 -29 -89 -67 -124 -67 -22 0 -22 3 -19 69 2 38 0 67 -4 64 -11 -6 -10
21 1 50 11 29 69 97 82 97 16 0 10 -25 -8 -36 -10 -6 -26 -25 -36 -43 -14 -23
-4 -17 38 25 59 60 63 78 20 94 -43 16 -90 12 -110 -10 -18 -20 -19 -19 -57
61 -114 244 -309 400 -568 455 -79 17 -235 16 -310 0z m355 -26 c129 -33 277
-121 371 -222 50 -53 114 -153 146 -229 l29 -70 -25 -52 c-14 -29 -30 -73 -35
-99 -11 -63 -47 -114 -97 -138 -52 -26 -90 -26 -104 -1 -20 38 -11 58 38 90
152 100 177 194 58 221 -52 11 -94 -13 -133 -79 -84 -140 -54 -271 61 -271 61
0 107 16 144 50 l34 30 28 -30 c15 -16 35 -30 44 -30 9 0 16 -5 16 -11 0 -7
-9 -9 -22 -6 -22 6 -22 5 -4 -8 15 -11 17 -22 13 -51 -4 -21 -11 -42 -16 -47
-7 -7 -175 -13 -438 -18 -435 -8 -621 -20 -882 -60 -110 -17 -136 -18 -143 -7
-15 23 -40 119 -34 133 2 7 0 15 -7 18 -8 2 -6 17 7 50 29 77 32 150 8 191
-17 29 -19 41 -11 73 34 130 86 232 171 330 193 225 491 318 783 243z m425
-550 c0 -5 -13 -16 -30 -25 -16 -8 -35 -25 -41 -38 -10 -19 -8 -19 18 6 37 34
60 37 38 4 -20 -31 -81 -76 -72 -54 11 29 -2 19 -19 -15 -10 -18 -19 -28 -21
-21 -12 34 73 153 108 153 10 0 19 -4 19 -10z m147 -217 c-2 -16 -4 -3 -4 27
0 30 2 43 4 28 2 -16 2 -40 0 -55z m193 -28 c-34 -41 -189 -88 -178 -54 2 7
24 17 49 21 24 4 62 21 84 37 40 29 70 26 45 -4z m-262 -287 c-6 -18 -75 -25
-373 -37 -291 -13 -547 -30 -555 -38 -3 -3 29 -3 70 0 41 4 179 11 305 17 127
6 297 15 379 20 83 5 152 7 155 5 10 -11 -99 -152 -164 -212 -82 -75 -210
-144 -322 -175 -109 -29 -286 -29 -397 1 -87 23 -197 78 -278 140 -58 44 -132
127 -120 135 6 3 108 21 342 59 22 4 22 4 -5 6 -27 1 -198 -25 -312 -48 -31
-6 -46 -5 -53 4 -12 14 -7 15 170 45 191 32 362 49 630 60 221 10 476 24 518
29 8 0 12 -5 10 -11z"/>
<path d="M2239 2956 c-1 -3 -2 -9 -3 -13 -1 -5 -6 -27 -10 -50 -8 -46 -8 -45
-113 -58 -69 -9 -112 1 -123 28 -7 19 -9 16 -9 -14 -1 -56 17 -64 126 -62 69
1 93 -1 90 -10 -2 -8 -34 -12 -99 -12 -53 0 -94 -3 -91 -7 2 -5 45 -8 95 -8
79 0 89 -2 84 -16 -12 -32 -45 -194 -52 -256 -8 -76 -31 -125 -79 -166 -36
-32 -42 -35 -125 -52 l-45 -9 52 4 c73 6 128 37 163 91 27 43 29 44 39 25 12
-22 105 -55 125 -44 6 3 21 15 33 26 22 20 23 20 43 2 11 -10 41 -20 71 -23
50 -5 50 -5 104 51 43 44 58 69 74 122 24 78 26 114 8 158 -19 44 -42 61 -84
61 -25 0 -41 -7 -54 -23 -23 -29 -24 -45 -3 -37 9 4 27 0 40 -9 63 -41 27
-216 -58 -277 -30 -21 -31 -21 -45 -2 -24 32 3 156 42 198 21 23 24 31 14 42
-7 9 -25 14 -43 12 -26 -2 -35 -11 -53 -48 -13 -25 -26 -67 -29 -95 -4 -27
-16 -62 -26 -78 -20 -27 -56 -52 -64 -44 -20 19 70 441 98 458 13 8 222 49
251 49 10 0 34 -7 55 -16 32 -14 34 -17 18 -23 -19 -7 -19 -8 0 -15 14 -5 26
1 46 24 33 36 34 49 8 83 -38 48 -70 47 -287 -17 l-83 -24 0 23 c0 15 -9 26
-27 33 -45 17 -73 24 -74 18z"/>
<path d="M2515 2835 c-5 -1 -46 -11 -90 -20 -44 -10 -84 -22 -90 -27 -7 -7 -3
-8 10 -5 83 23 155 39 217 46 72 8 72 8 18 9 -30 0 -59 -1 -65 -3z"/>
<path d="M2708 2808 c-17 -18 -22 -28 -13 -28 14 0 52 48 44 53 -2 1 -16 -10
-31 -25z"/>
<path d="M2829 2698 c-19 -24 -36 -45 -40 -48 -3 -3 -16 -23 -27 -45 -25 -48
-26 -46 -7 25 8 30 15 56 15 58 0 4 -68 32 -78 32 -10 0 -47 -180 -58 -277 -6
-61 -6 -63 20 -73 44 -16 53 -12 61 28 14 75 97 253 112 238 2 -2 -3 -21 -11
-42 -12 -29 -12 -34 -2 -21 11 14 18 16 41 7 35 -13 55 -7 55 18 0 11 7 39 15
63 15 42 15 45 -6 62 -33 27 -54 21 -90 -25z"/>
<path d="M2010 2659 c-30 -11 -71 -31 -92 -45 -33 -23 -38 -32 -38 -67 l0 -39
56 7 c36 4 66 2 85 -5 25 -11 28 -16 24 -47 -10 -76 -91 -171 -114 -134 -7 11
-9 11 -14 0 -3 -8 -6 -3 -6 11 -1 14 7 42 18 63 16 31 16 38 5 48 -25 20 -15
28 39 32 28 2 15 3 -30 3 l-83 -1 -15 -44 c-22 -66 -20 -117 7 -135 34 -24 97
-20 157 10 56 28 83 62 103 128 10 33 9 43 -5 69 -17 28 -17 31 0 51 18 21 18
21 -3 3 -18 -15 -25 -16 -49 -5 l-28 13 24 7 c13 4 -3 4 -35 1 -66 -6 -71 9
-9 26 29 8 42 7 59 -4 26 -16 44 -3 44 32 0 18 -27 46 -42 42 -2 0 -28 -9 -58
-20z"/>
<path d="M2467 2633 c-3 -5 5 -8 18 -8 13 0 21 3 18 8 -2 4 -10 7 -18 7 -8 0
-16 -3 -18 -7z"/>
<path d="M2281 2604 c0 -11 3 -14 6 -6 3 7 2 16 -1 19 -3 4 -6 -2 -5 -13z"/>
<path d="M3169 2574 c-18 -19 -55 -49 -81 -66 -53 -33 -64 -47 -20 -24 37 19
99 70 123 100 29 37 19 32 -22 -10z"/>
<path d="M2448 2553 c-9 -10 -21 -29 -28 -43 -9 -19 -5 -17 18 10 28 31 38 50
29 50 -2 0 -11 -8 -19 -17z"/>
<path d="M2860 2546 c0 -7 50 -13 55 -7 2 4 -10 8 -26 9 -16 1 -29 1 -29 -2z"/>
<path d="M2261 2514 c0 -11 3 -14 6 -6 3 7 2 16 -1 19 -3 4 -6 -2 -5 -13z"/>
<path d="M2756 2475 c-9 -26 -7 -32 5 -12 6 10 9 21 6 23 -2 3 -7 -2 -11 -11z"/>
<path d="M1821 2434 c0 -11 3 -14 6 -6 3 7 2 16 -1 19 -3 4 -6 -2 -5 -13z"/>
<path d="M3200 2419 c-42 -36 -100 -53 -154 -46 -26 4 -35 2 -25 -4 41 -26
168 10 214 61 27 30 5 23 -35 -11z"/>
<path d="M2557 2391 c-35 -52 -84 -88 -127 -94 l-35 -4 38 -1 c31 -2 45 5 83
40 25 23 52 55 60 70 21 40 11 34 -19 -11z"/>
<path d="M1945 2389 c-4 -6 -5 -12 -2 -15 2 -3 7 2 10 11 7 17 1 20 -8 4z"/>
<path d="M2295 2315 l-30 -24 -53 18 c-29 10 -49 14 -44 9 5 -5 30 -15 56 -23
46 -14 47 -14 79 15 39 35 34 38 -8 5z"/>
<path d="M2673 2333 c9 -2 25 -2 35 0 9 3 1 5 -18 5 -19 0 -27 -2 -17 -5z"/>
<path d="M2367 2309 c7 -7 15 -10 18 -7 3 3 -2 9 -12 12 -14 6 -15 5 -6 -5z"/>
<path d="M1857 2269 c7 -7 15 -10 18 -7 3 3 -2 9 -12 12 -14 6 -15 5 -6 -5z"/>
<path d="M1850 3254 c0 -17 38 -47 52 -41 9 4 7 6 -4 6 -9 1 -24 11 -32 23 -9
12 -16 18 -16 12z"/>
<path d="M1965 3239 c-4 -6 -17 -14 -29 -19 -14 -6 -16 -9 -5 -9 9 -1 24 8 34
19 10 11 15 20 12 20 -3 0 -9 -5 -12 -11z"/>
<path d="M1197 2799 c-138 -55 -286 -198 -270 -259 3 -11 24 -41 46 -66 38
-43 43 -46 79 -40 29 5 38 3 38 -8 0 -19 -46 -29 -71 -15 -15 8 -19 8 -15 0 5
-7 -2 -11 -19 -11 -14 0 -37 -11 -50 -25 -21 -20 -25 -34 -25 -86 0 -58 2 -64
38 -99 48 -48 120 -66 211 -51 136 22 233 96 298 228 36 73 38 82 38 172 0 82
-4 103 -24 141 -29 55 -65 99 -100 122 -35 24 -113 22 -174 -3z m176 -63 c26
-20 21 -23 -33 -18 -86 8 -239 -78 -283 -160 -13 -23 -13 -27 -3 -13 35 44 81
86 84 77 1 -5 -6 -40 -16 -78 -17 -62 -22 -69 -46 -72 -101 -12 -56 131 66
209 96 62 192 85 231 55z m12 -40 c16 -12 20 -30 23 -116 7 -166 -35 -276
-126 -334 -51 -32 -112 -49 -112 -32 0 9 -9 12 -24 9 -13 -3 -34 0 -46 7 -14
8 -20 8 -16 1 4 -6 21 -15 39 -20 l32 -9 -30 -1 c-36 -1 -89 29 -105 60 -13
23 -8 105 6 119 5 4 21 10 36 14 26 6 26 5 17 -26 -5 -18 -9 -49 -9 -69 0 -40
11 -49 61 -49 28 0 29 1 29 54 0 30 14 106 30 169 37 141 37 153 4 170 l-25
13 48 21 c26 12 55 24 63 27 31 10 87 6 105 -8z"/>
<path d="M1231 2564 c0 -11 3 -14 6 -6 3 7 2 16 -1 19 -3 4 -6 -2 -5 -13z"/>
<path d="M1035 2349 c-4 -6 -5 -12 -2 -15 2 -3 7 2 10 11 7 17 1 20 -8 4z"/>
<path d="M1171 2314 c0 -11 3 -14 6 -6 3 7 2 16 -1 19 -3 4 -6 -2 -5 -13z"/>
<path d="M3655 2740 c-3 -5 -2 -10 4 -10 5 0 13 5 16 10 3 6 2 10 -4 10 -5 0
-13 -4 -16 -10z"/>
<path d="M3460 2685 c-17 -10 -20 -14 -9 -15 9 0 22 7 29 15 15 18 12 18 -20
0z"/>
<path d="M3630 2645 c-13 -14 -22 -27 -19 -29 2 -2 14 10 27 25 29 36 24 38
-8 4z"/>
<path d="M1677 2563 c-3 -5 5 -8 18 -8 13 0 21 3 18 8 -2 4 -10 7 -18 7 -8 0
-16 -3 -18 -7z"/>
<path d="M3776 2543 c-6 -14 -5 -15 5 -6 7 7 10 15 7 18 -3 3 -9 -2 -12 -12z"/>
<path d="M3717 2464 c-46 -50 -52 -54 -95 -55 -43 -1 -45 -1 -18 -9 49 -15
105 20 151 93 25 39 16 33 -38 -29z"/>
<path d="M1644 2461 c-15 -23 -24 -44 -20 -48 3 -3 6 -1 6 5 0 6 12 25 26 42
15 17 24 33 21 36 -3 3 -18 -13 -33 -35z"/>
<path d="M4059 2381 c-72 -77 -278 -150 -565 -200 -60 -11 -97 -20 -83 -20 85
-3 437 83 534 129 65 31 129 80 145 111 15 27 10 24 -31 -20z"/>
<path d="M1454 2308 c-28 -54 -106 -129 -169 -161 -49 -25 -78 -32 -155 -38
l-95 -7 95 2 c82 1 103 5 153 29 66 33 141 103 175 165 13 23 21 42 18 42 -3
0 -13 -14 -22 -32z"/>
<path d="M3876 2054 c-198 -569 -721 -945 -1314 -944 -89 0 -260 21 -322 40
-19 5 -42 10 -50 9 -26 -2 71 -29 160 -44 111 -19 349 -19 461 0 443 78 831
372 1015 770 40 87 97 252 92 267 -2 6 -21 -38 -42 -98z"/>
<path d="M3786 2131 l-59 -17 -44 -99 c-64 -143 -143 -256 -258 -371 -212
-213 -460 -331 -768 -365 -387 -43 -826 142 -1068 449 -33 42 -65 84 -69 92
-7 12 -18 10 -69 -15 -34 -16 -61 -32 -61 -36 0 -30 179 -233 282 -319 31 -27
55 -50 52 -52 -2 -3 2 -5 9 -5 6 0 54 -26 106 -58 51 -31 114 -66 140 -77 396
-173 855 -155 1228 48 297 162 528 434 642 757 35 99 37 96 -63 68z"/>
<path d="M994 2126 c11 -9 24 -16 30 -16 12 0 7 5 -24 19 -24 11 -24 11 -6 -3z"/>
<path d="M1730 1989 c-19 -6 -86 -24 -148 -41 -62 -17 -111 -33 -108 -35 3 -4
187 43 301 76 42 12 0 12 -45 0z"/>
<path d="M3315 1928 c-15 -22 -14 -24 15 -51 36 -32 47 -31 68 4 l14 24 -20
-25 c-16 -19 -24 -22 -32 -14 -9 9 -9 18 1 35 11 23 11 23 -7 8 -29 -25 -47
-13 -28 17 20 30 11 32 -11 2z"/>
<path d="M1355 1881 c-100 -36 -133 -50 -120 -50 6 0 60 17 120 39 61 21 103
39 95 39 -8 0 -51 -13 -95 -28z"/>
<path d="M960 1861 c-31 -5 -10 -7 70 -7 63 1 133 -2 155 -6 29 -6 34 -5 18 2
-31 13 -188 20 -243 11z"/>
<path d="M3251 1849 c-23 -25 -19 -35 33 -72 21 -14 27 -16 18 -5 -18 22 -7
38 26 39 15 1 20 3 12 5 -9 3 -20 15 -25 27 -14 30 -39 33 -64 6z m52 -3 c3
-8 -1 -22 -8 -33 -13 -17 -15 -17 -31 -1 -14 14 -15 20 -4 32 16 20 36 20 43
2z"/>
<path d="M3172 1778 c-7 -7 -12 -24 -12 -38 0 -14 5 -31 12 -38 17 -17 53 -15
69 5 13 15 12 15 -9 2 -40 -25 -85 30 -48 60 22 18 48 10 63 -19 9 -17 13 -20
13 -8 0 39 -60 64 -88 36z"/>
<path d="M1920 1755 c-9 -11 -8 -19 4 -37 9 -12 16 -26 16 -30 0 -14 -23 -9
-42 9 -22 20 -24 11 -2 -11 38 -39 72 -5 39 38 -11 14 -12 23 -4 33 6 7 9 13
6 13 -2 0 -10 -7 -17 -15z"/>
<path d="M1950 1756 c0 -2 7 -9 15 -16 9 -7 15 -8 15 -2 0 5 -7 12 -15 16 -8
3 -15 4 -15 2z"/>
<path d="M3111 1704 c0 -16 3 -23 6 -15 4 9 12 5 30 -15 l24 -29 -18 33 c-28
51 -43 60 -42 26z"/>
<path d="M1985 1687 c-29 -48 -29 -56 -1 -22 l26 30 0 -47 c0 -27 4 -48 9 -48
4 0 20 19 35 43 27 42 27 42 2 15 -14 -16 -28 -28 -31 -28 -3 0 -5 18 -5 39 0
52 -11 57 -35 18z"/>
<path d="M3040 1674 c0 -13 42 -75 48 -70 2 3 -1 12 -8 21 -17 21 -7 29 18 16
26 -14 32 -14 32 -1 0 6 -7 10 -15 10 -9 0 -29 7 -45 15 -17 9 -30 13 -30 9z"/>
<path d="M2083 1622 c-9 -21 -18 -40 -20 -43 -4 -7 48 -31 54 -25 2 2 -5 7
-16 11 -33 10 -27 38 6 32 24 -4 26 -4 10 8 -36 26 -15 45 26 23 19 -10 20 -9
9 4 -26 33 -51 29 -69 -10z"/>
<path d="M2916 1617 c-16 -12 -16 -15 0 -52 21 -51 17 -49 52 -31 38 20 46 43
27 72 -17 26 -51 31 -79 11z m74 -16 c13 -25 5 -46 -24 -59 -21 -9 -25 -7 -40
25 -14 29 -15 38 -4 44 23 15 57 10 68 -10z"/>
<path d="M2174 1568 c-21 -23 -32 -37 -23 -30 9 7 25 10 35 6 15 -5 16 -4 5 4
-12 9 -12 13 -2 26 22 26 31 18 29 -24 -1 -22 2 -43 5 -47 4 -3 7 17 7 45 0
28 -4 53 -8 56 -5 3 -26 -14 -48 -36z"/>
<path d="M2860 1597 c0 -1 4 -17 9 -35 5 -17 7 -32 5 -32 -3 0 -21 11 -41 25
-20 13 -38 23 -40 21 -2 -1 4 -24 13 -50 9 -26 18 -45 20 -43 3 2 0 17 -6 32
-15 39 -7 41 36 11 21 -14 39 -24 41 -22 4 4 -28 96 -33 96 -2 0 -4 -1 -4 -3z"/>
<path d="M2272 1551 c-16 -53 -15 -69 3 -45 15 19 15 19 35 -5 22 -25 26 -21
9 10 -8 16 -6 24 13 40 21 19 19 19 -16 -2 l-38 -22 7 31 c9 45 1 40 -13 -7z"/>
<path d="M2377 1553 c-3 -5 -7 -26 -9 -48 -3 -39 -3 -40 32 -41 26 -1 28 -1 7
3 -25 4 -27 8 -24 41 2 33 6 37 29 37 15 -1 24 3 22 7 -7 10 -51 10 -57 1z"/>
<path d="M2716 1543 c-2 -10 -8 -34 -11 -53 -6 -30 -5 -33 7 -19 19 24 55 30
63 11 3 -8 8 -12 11 -9 7 6 -47 86 -58 87 -4 0 -9 -8 -12 -17z m34 -23 c9 -17
8 -20 -10 -20 -13 0 -20 7 -20 20 0 11 4 20 10 20 5 0 14 -9 20 -20z"/>
<path d="M2470 1523 c0 -16 -3 -39 -6 -53 -5 -23 -4 -24 9 -7 8 9 18 17 22 17
5 0 18 -8 29 -17 17 -15 19 -15 8 -1 -9 11 -10 18 -2 23 12 7 14 55 2 55 -5 0
-8 -10 -8 -22 1 -17 -5 -24 -21 -26 -19 -3 -23 1 -23 22 0 15 7 26 18 29 13 4
11 5 -5 6 -19 1 -23 -4 -23 -26z"/>
<path d="M2583 1543 c-25 -10 -14 -41 19 -52 35 -12 30 -26 -12 -34 -21 -4
-20 -4 8 -6 17 0 33 4 34 9 4 29 1 35 -22 40 -31 7 -34 35 -3 34 12 0 20 3 17
8 -6 9 -22 9 -41 1z"/>
<path d="M2408 1503 c7 -3 16 -2 19 1 4 3 -2 6 -13 5 -11 0 -14 -3 -6 -6z"/>
<path d="M1914 1266 c11 -9 24 -16 30 -16 12 0 7 5 -24 19 -24 11 -24 11 -6
-3z"/>
<path d="M1967 1239 c7 -7 15 -10 18 -7 3 3 -2 9 -12 12 -14 6 -15 5 -6 -5z"/>
<path d="M2020 1217 c0 -8 139 -61 145 -55 3 3 -21 14 -52 25 -32 11 -66 24
-75 28 -10 4 -18 5 -18 2z"/>
</g>
</svg>
